<?xml version="1.0" standalone="no"?>
<!DOCTYPE svg PUBLIC "-//W3C//DTD SVG 20010904//EN"
 "http://www.w3.org/TR/2001/REC-SVG-20010904/DTD/svg10.dtd">
<svg version="1.0" xmlns="http://www.w3.org/2000/svg"
 width="512.000000pt" height="512.000000pt" viewBox="0 0 512.000000 512.000000"
 preserveAspectRatio="xMidYMid meet">
<metadata>
Created by potrace 1.14, written by Peter Selinger 2001-2017
</metadata>
<g transform="translate(0.000000,512.000000) scale(0.100000,-0.100000)"
fill="#000000" stroke="none">
<path d="M354 4884 c-135 -30 -247 -120 -311 -251 l-38 -78 -3 -718 c-2 -466
1 -738 8 -775 30 -165 161 -305 330 -353 34 -9 190 -13 610 -14 311 -2 570 -3
575 -4 6 -1 10 -150 10 -425 l0 -424 255 0 c140 -1 270 -1 288 -1 l32 -1 0
-358 0 -357 -495 0 -495 0 2 -450 3 -450 1435 0 1435 0 3 450 2 450 -495 0
-495 0 0 357 0 358 28 1 c15 0 144 1 287 2 l260 2 0 423 c0 232 2 423 5 423 3
1 264 2 580 4 564 2 576 2 638 24 35 12 81 33 102 46 97 61 179 182 200 294 6
33 10 324 10 745 0 581 -2 701 -15 749 -40 152 -143 264 -294 319 -56 21 -68
21 -2232 22 -1547 1 -2190 -2 -2225 -10z m1446 -291 c0 -1 -13 -14 -28 -30
-136 -137 -249 -352 -290 -553 -29 -137 -23 -346 12 -485 44 -169 144 -351
264 -479 23 -25 39 -47 34 -49 -4 -2 -315 -3 -692 -3 -665 1 -686 2 -719 21
-19 11 -43 33 -55 48 -21 28 -21 32 -21 732 0 694 0 704 21 732 11 15 38 37
60 48 38 20 57 20 727 20 378 0 687 -1 687 -2z m955 -23 c228 -57 413 -208
523 -425 102 -201 105 -470 8 -681 -58 -125 -122 -205 -232 -294 -349 -279
-862 -213 -1131 145 -78 103 -134 233 -151 345 -8 58 -8 234 1 280 12 65 39
145 69 205 172 342 546 517 913 425z m1999 -4 c69 -52 67 -21 64 -785 -3 -683
-3 -690 -24 -718 -12 -15 -36 -37 -55 -48 -33 -19 -54 -20 -726 -20 -381 0
-693 2 -693 5 0 3 19 23 41 45 80 78 172 223 222 349 48 119 68 220 72 366 4
120 1 161 -18 260 -34 181 -145 390 -281 533 -20 20 -36 38 -36 40 0 1 314 2
698 2 l699 0 37 -29z m-1474 -1875 c3 0 6 -124 5 -273 l0 -273 -725 0 -725 0
-1 270 c0 149 0 272 2 275 2 4 1427 5 1444 1z m-590 -850 c20 -1 20 -8 20
-359 l0 -357 -150 0 -150 0 0 357 c0 229 4 358 10 360 8 2 171 2 270 -1z
m1005 -1166 l0 -150 -1135 0 -1135 0 -3 140 c-1 76 -1 144 1 150 3 7 354 10
1138 10 l1134 0 0 -150z"/>
<path d="M860 3795 l0 -150 150 0 150 0 0 150 0 150 -150 0 -150 1 0 -151z"/>
<path d="M2485 4239 c-307 -57 -465 -388 -317 -662 52 -96 170 -187 281 -217
199 -53 418 48 511 235 89 180 52 389 -93 527 -100 94 -251 141 -382 117z
m163 -326 c81 -61 79 -185 -3 -239 -98 -64 -235 4 -235 118 0 123 141 195 238
121z"/>
<path d="M3964 3941 c-2 -2 -4 -70 -4 -150 l0 -146 148 0 147 0 3 151 2 150
-145 0 c-81 0 -148 -3 -151 -5z"/>
</g>
</svg>
